<svg width="512" height="512" viewBox="0 0 512 512" fill="none" xmlns="http://www.w3.org/2000/svg">
<g clip-path="url(#clip0)">
<path d="M498.939 429.828H449.329V56.2534C449.329 25.2352 424.094 0 393.075 0H56.9673C25.949 0 0.713867 25.2352 0.713867 56.2534V89.5145C0.713867 95.9469 5.94677 101.18 12.3781 101.18H98.2143V455.748C98.2143 486.766 123.449 512.001 154.468 512.001H455.033C486.051 512.001 511.285 486.766 511.285 455.748V442.177C511.285 435.367 505.746 429.828 498.939 429.828V429.828ZM15.7193 56.2534C15.7193 33.5092 34.223 15.0055 56.9673 15.0055C79.7116 15.0055 98.2153 33.5092 98.2153 56.2534V86.1733H15.7193V56.2534ZM496.28 455.748C496.28 478.492 477.776 496.996 455.033 496.996H192.68C203.77 486.714 210.721 472.028 210.721 455.748V444.835H249.396C253.54 444.835 256.899 441.475 256.899 437.332C256.899 433.188 253.54 429.829 249.396 429.829H203.218C199.075 429.829 195.716 433.188 195.716 437.332V455.748C195.716 478.492 177.212 496.996 154.468 496.996C131.723 496.996 113.22 478.492 113.22 455.748V56.2534C113.22 39.9695 106.258 25.2872 95.1632 15.0055H393.075C415.819 15.0055 434.322 33.5092 434.322 56.2534V429.828H281.37C277.225 429.828 273.867 433.187 273.867 437.331C273.867 441.474 277.225 444.834 281.37 444.834H496.28V455.748Z" fill="white"/>
<path d="M238.923 231.877C234.779 231.877 231.42 235.237 231.42 239.38V307.155C231.42 309.389 229.603 311.205 227.369 311.205H213.07V299.087V96.011C213.07 94.7365 212.745 93.4831 212.127 92.3677L186.521 46.2639C184.226 42.1314 179.862 39.5635 175.135 39.5635C170.409 39.5635 166.046 42.1304 163.75 46.2639L138.144 92.3677C137.525 93.4821 137.201 94.7355 137.201 96.011V128.139C137.201 132.282 140.56 135.641 144.703 135.641C148.847 135.641 152.206 132.282 152.206 128.139V103.514H198.066V291.584H152.206V160.113C152.206 155.97 148.847 152.611 144.703 152.611C140.56 152.611 137.201 155.97 137.201 160.113V299.087V331.762V356.766C137.201 365.198 141.56 372.626 148.141 376.929V390.371C148.141 405.256 160.251 417.366 175.136 417.366C190.022 417.366 202.131 405.256 202.131 390.371V376.929C208.712 372.626 213.071 365.198 213.071 356.766V331.762V326.211H227.37C237.878 326.211 246.426 317.663 246.426 307.155V239.38C246.425 235.237 243.066 231.877 238.923 231.877V231.877ZM198.064 356.766C198.064 361.769 193.993 365.84 188.99 365.84H161.278C156.276 365.84 152.204 361.77 152.204 356.766V339.264H198.064V356.766ZM175.134 56.6697L192.818 88.5083H157.451L175.134 56.6697ZM198.064 306.589V324.259H152.204V306.589H198.064ZM187.124 390.371C187.124 396.982 181.745 402.36 175.133 402.36C168.522 402.36 163.144 396.982 163.144 390.371V380.845H187.124V390.371Z" fill="white"/>
<path d="M333.054 203.352C345.155 203.352 357.044 200.104 367.434 193.959C371 191.849 372.182 187.248 370.072 183.682C367.965 180.116 363.363 178.935 359.796 181.043C351.718 185.821 342.47 188.347 333.055 188.347C304.036 188.347 280.429 164.738 280.429 135.72C280.429 106.703 304.037 83.0943 333.055 83.0943C362.074 83.0943 385.682 106.703 385.682 135.72C385.682 144.526 383.463 153.239 379.266 160.919C377.279 164.555 378.615 169.114 382.251 171.1C385.884 173.086 390.444 171.752 392.432 168.115C397.832 158.235 400.687 147.033 400.687 135.72C400.687 98.4279 370.347 68.0889 333.055 68.0889C295.762 68.0889 265.423 98.4289 265.423 135.72C265.423 173.012 295.761 203.352 333.054 203.352V203.352Z" fill="white"/>
<path d="M348.295 112.983L322.13 145.809L315.584 142.537C311.877 140.682 307.37 142.186 305.518 145.892C303.664 149.598 305.167 154.105 308.873 155.958L320.854 161.948C321.925 162.483 323.072 162.74 324.206 162.74C326.434 162.74 328.614 161.749 330.078 159.913L360.03 122.335C362.612 119.095 362.08 114.374 358.84 111.792C355.6 109.21 350.879 109.743 348.295 112.983V112.983Z" fill="white"/>
</g>
<defs>
<clipPath id="clip0">
<rect width="512" height="512" fill="white"/>
</clipPath>
</defs>
</svg>
