<svg width="30" height="27" viewBox="0 0 30 27" fill="none" xmlns="http://www.w3.org/2000/svg">
<path d="M15 10.1953C17.8154 10.1953 20.0977 7.91301 20.0977 5.09766C20.0977 2.2823 17.8154 0 15 0C12.1846 0 9.90234 2.2823 9.90234 5.09766C9.90234 7.91301 12.1846 10.1953 15 10.1953Z" fill="white"/>
<path d="M25.3125 10.1952C27.0923 10.1952 28.5352 8.75236 28.5352 6.97254C28.5352 5.19271 27.0923 3.74988 25.3125 3.74988C23.5327 3.74988 22.0898 5.19271 22.0898 6.97254C22.0898 8.75236 23.5327 10.1952 25.3125 10.1952Z" fill="white"/>
<path d="M4.6875 10.1952C6.46732 10.1952 7.91016 8.75236 7.91016 6.97254C7.91016 5.19271 6.46732 3.74988 4.6875 3.74988C2.90768 3.74988 1.46484 5.19271 1.46484 6.97254C1.46484 8.75236 2.90768 10.1952 4.6875 10.1952Z" fill="white"/>
<path d="M7.8627 13.0892C6.59414 12.0498 5.44529 12.1874 3.97852 12.1874C1.78477 12.1874 0 13.9616 0 16.1419V22.5409C0 23.4878 0.772852 24.2577 1.72324 24.2577C5.82633 24.2577 5.33203 24.332 5.33203 24.0808C5.33203 19.5464 4.79496 16.2212 7.8627 13.0892V13.0892Z" fill="white"/>
<path d="M16.395 12.2109C13.8331 11.9972 11.6062 12.2133 9.68547 13.7988C6.4712 16.3734 7.08977 19.8399 7.08977 24.0808C7.08977 25.2028 8.00266 26.1327 9.14172 26.1327C21.5098 26.1327 22.0021 26.5317 22.7355 24.9075C22.976 24.3583 22.9101 24.5328 22.9101 19.2784C22.9101 15.105 19.2964 12.2109 16.395 12.2109V12.2109Z" fill="white"/>
<path d="M26.0219 12.1874C24.5471 12.1874 23.4046 12.0512 22.1377 13.0892C25.1825 16.1979 24.6684 19.2963 24.6684 24.0807C24.6684 24.3335 24.258 24.2577 28.2156 24.2577C29.2 24.2577 30.0004 23.4602 30.0004 22.48V16.1419C30.0004 13.9616 28.2156 12.1874 26.0219 12.1874Z" fill="white"/>
</svg>
