<svg id="Layer_1" enable-background="new 0 0 511.453 511.453" height="512" viewBox="0 0 511.453 511.453" width="512" xmlns="http://www.w3.org/2000/svg"><g><path d="m86.447 211.511-54.724 33.177 54.724 31.107z"/><path d="m479.295 244.422-53.77-32.62v63.304z"/><path d="m116.447 0v204.989 87.86l139.265 79.163 139.813-79.786v-86.992-205.234zm155.435 286.955h-31.411v-31.41h31.411zm-.705-58.84h-30v-23.017-13.194c0-12.497 8.566-23.375 20.831-26.455 11.193-2.81 18.736-13.254 17.938-24.834-.811-11.758-10.289-21.235-22.046-22.046-6.716-.47-13.097 1.789-17.975 6.343-4.885 4.56-7.575 10.748-7.575 17.425h-30c0-14.865 6.234-29.21 17.105-39.356 11.024-10.289 25.402-15.382 40.51-14.341 26.617 1.836 48.074 23.293 49.91 49.911 1.755 25.448-14.426 48.476-38.697 55.492v11.081 22.991z"/><path d="m425.525 309.648-165.819 94.626-3.965 2.263-3.98-2.263-165.314-93.971-69.456-39.481v240.631h477.471v-241.145z"/></g></svg>