<svg width="512" height="512" viewBox="0 0 512 512" fill="none" xmlns="http://www.w3.org/2000/svg">
<g clip-path="url(#clip0)">
<path d="M86.5394 211.737L31.7568 244.95L86.5394 276.09V211.737Z" fill="white"/>
<path d="M479.807 244.683L425.979 212.029V275.4L479.807 244.683Z" fill="white"/>
<path d="M116.571 0V205.208V293.162L255.985 372.41L395.948 292.539V205.454V0L116.571 0ZM272.173 287.262H240.728V255.818H272.173V287.262ZM271.467 228.359H241.435V205.317V192.109C241.435 179.599 250.01 168.709 262.288 165.626C273.493 162.813 281.044 152.358 280.245 140.765C279.433 128.995 269.945 119.508 258.176 118.696C251.452 118.225 245.065 120.487 240.181 125.046C235.291 129.61 232.598 135.805 232.598 142.489H202.566C202.566 127.608 208.807 113.248 219.689 103.091C230.725 92.7911 245.119 87.6927 260.243 88.7348C286.888 90.5728 308.368 112.053 310.206 138.699C311.963 164.174 295.765 187.227 271.468 194.251V205.343V228.359H271.467Z" fill="white"/>
<path d="M425.98 309.979L259.983 404.706L256.014 406.972L252.03 404.706L86.5391 310.635L17.0088 271.112V512H494.99V270.597L425.98 309.979Z" fill="white"/>
</g>
<defs>
<clipPath id="clip0">
<rect width="512" height="512" fill="white"/>
</clipPath>
</defs>
</svg>
