<svg width="512" height="512" viewBox="0 0 512 512" fill="none" xmlns="http://www.w3.org/2000/svg">
<g clip-path="url(#clip0)">
<path d="M443.077 379.077C428.483 379.077 414.833 371.897 406.566 359.871L384.884 328.333C359.343 374.128 310.79 403.693 256.001 403.693C179.549 403.693 116.477 345.297 109.041 270.77H123.078C128.562 270.77 133.596 267.731 136.149 262.876C138.702 258.022 138.355 252.152 135.248 247.633L113.718 216.317L81.0938 168.863C78.3398 164.856 73.7878 162.461 68.9238 162.461C68.3158 162.461 67.7128 162.498 67.1168 162.571C66.5208 162.644 65.9338 162.754 65.3568 162.897C63.9148 163.256 62.5388 163.829 61.2758 164.594C59.5078 165.664 57.9578 167.109 56.7528 168.862L2.59877 247.632C-0.508226 252.151 -0.855225 258.022 1.69777 262.875C4.25077 267.728 9.28478 270.77 14.7698 270.77H30.0098C33.5238 325.701 56.5968 376.861 95.8688 416.134C138.642 458.907 195.511 482.463 256.001 482.463C316.491 482.463 373.36 458.907 416.133 416.134C427.504 404.763 437.573 392.289 446.218 378.956C445.176 379.029 444.13 379.077 443.077 379.077Z" fill="white"/>
<path d="M267.255 241.231H244.75C240.484 241.231 237.014 237.761 237.014 233.495V222.242C237.014 217.977 240.484 214.507 244.75 214.507H267.255C271.521 214.507 274.991 217.977 274.991 222.242C274.991 230.399 281.604 237.011 289.76 237.011C297.916 237.011 304.529 230.398 304.529 222.242C304.529 202.876 289.681 186.917 270.77 185.139V177.232C270.77 169.075 264.157 162.463 256.001 162.463C247.844 162.463 241.232 169.076 241.232 177.232V185.139C222.322 186.917 207.473 202.876 207.473 222.242V233.495C207.473 254.049 224.194 270.77 244.748 270.77H267.253C271.519 270.77 274.989 274.24 274.989 278.506V289.759C274.989 294.024 271.518 297.495 267.253 297.495H244.748C240.482 297.495 237.012 294.025 237.012 289.76C237.012 281.603 230.399 274.991 222.243 274.991C214.087 274.991 207.474 281.604 207.474 289.76C207.474 309.126 222.322 325.085 241.233 326.863V334.769C241.233 342.926 247.846 349.538 256.002 349.538C264.159 349.538 270.771 342.925 270.771 334.769V326.862C289.68 325.084 304.53 309.125 304.53 289.759V278.506C304.529 257.952 287.809 241.231 267.255 241.231Z" fill="white"/>
<path d="M510.303 249.125C507.749 244.271 502.716 241.231 497.231 241.231H481.991C478.477 186.3 455.404 135.14 416.132 95.8671C373.36 53.0951 316.49 29.5391 256.001 29.5391C195.512 29.5391 138.641 53.0951 95.8692 95.8681C84.4982 107.239 74.4292 119.713 65.7842 133.046C66.8252 132.972 67.8712 132.924 68.9242 132.924C83.5192 132.924 97.1682 140.104 105.435 152.13L127.117 183.668C152.658 137.873 201.211 108.309 256 108.309C332.452 108.309 395.524 166.705 402.96 241.232H388.923C383.439 241.232 378.405 244.271 375.852 249.126C373.299 253.98 373.646 259.85 376.753 264.369L398.283 295.685L430.907 343.139C431.596 344.141 432.397 345.042 433.287 345.83C435.957 348.194 439.43 349.541 443.078 349.541C447.941 349.541 452.494 347.146 455.249 343.139L474.803 314.696L509.402 264.37C512.51 259.848 512.856 253.978 510.303 249.125Z" fill="white"/>
</g>
<defs>
<clipPath id="clip0">
<rect width="512.001" height="512.001" fill="white"/>
</clipPath>
</defs>
</svg>
