<svg width="37" height="33" viewBox="0 0 37 33" fill="none" xmlns="http://www.w3.org/2000/svg">
<path d="M35.2386 9.96459C32.1977 3.885 25.6672 0.000216081 18.4878 0C8.27496 0.00223284 -0.00231102 7.74342 4.84014e-07 17.2905C0.00161854 24.0006 4.15709 30.1036 10.6595 32.9458C10.9681 33.0804 11.335 32.9557 11.479 32.6672C11.623 32.3787 11.4896 32.0357 11.181 31.9011C2.54582 28.1278 -1.18218 18.5251 2.85425 10.4529C6.89068 2.38064 17.1632 -1.10432 25.7983 2.66897C34.4335 6.44225 38.1615 16.045 34.125 24.1172C32.4114 27.5441 29.4641 30.2992 25.7983 31.901C25.4897 32.0357 25.3563 32.3786 25.5003 32.6671C25.6443 32.9556 26.0112 33.0803 26.3198 32.9457C35.5713 28.902 39.5643 18.613 35.2386 9.96459Z" fill="white"/>
<path d="M33.2816 17.2864C33.2863 9.64868 26.6668 3.45361 18.4965 3.44922C10.3261 3.44483 3.69904 9.63283 3.69434 17.2705C3.69095 22.7579 7.15852 27.728 12.5317 29.9372C12.8432 30.0657 13.207 29.9337 13.3444 29.6425C13.4818 29.3513 13.3406 29.0112 13.0291 28.8828C6.17327 26.0645 3.05952 18.5843 6.07442 12.1755C9.08924 5.76655 17.0911 2.85579 23.9468 5.67414C30.8027 8.49243 33.9164 15.9726 30.9015 22.3814C29.5353 25.2858 27.0536 27.6056 23.9468 28.8828C23.6353 29.0112 23.4942 29.3513 23.6315 29.6425C23.7689 29.9337 24.1327 30.0657 24.4443 29.9372C29.8107 27.729 33.2767 22.7675 33.2816 17.2864Z" fill="white"/>
<path d="M29.583 17.2865C29.5845 11.5582 24.6182 6.91348 18.4904 6.91211C12.3627 6.91074 7.39397 11.5534 7.39258 17.2816C7.3915 21.541 10.1763 25.3681 14.4146 26.9318C14.7342 27.0416 15.0884 26.8885 15.2059 26.5899C15.3194 26.3015 15.1709 25.9807 14.8683 25.8606C9.80148 23.9919 7.3146 18.6373 9.31359 13.9009C11.3126 9.1644 17.0406 6.83965 22.1073 8.70832C27.1741 10.577 29.661 15.9316 27.662 20.668C26.6596 23.0432 24.6482 24.9235 22.1073 25.8606C21.7878 25.9704 21.6241 26.3016 21.7416 26.6002C21.8591 26.8989 22.2133 27.052 22.5329 26.9422C22.5423 26.9389 22.5517 26.9354 22.5611 26.9317C26.8074 25.3802 29.5971 21.5485 29.583 17.2865Z" fill="white"/>
<path d="M25.8845 17.2864C25.8835 13.4676 22.5711 10.3725 18.486 10.3733C14.4009 10.3741 11.09 13.4706 11.0908 17.2894C11.0915 20.3353 13.2243 23.0221 16.3426 23.9054C16.669 23.9955 17.0119 23.8212 17.1083 23.516C17.2037 23.2138 17.0219 22.896 16.7001 22.8025C13.4421 21.8796 11.6013 18.6625 12.5885 15.6169C13.5758 12.5713 17.0172 10.8505 20.2752 11.7734C23.5332 12.6962 25.374 15.9133 24.3868 18.959C23.7894 20.8019 22.2466 22.2441 20.2752 22.8025C19.9494 22.8948 19.7654 23.2165 19.8641 23.5211C19.9429 23.764 20.1824 23.9301 20.454 23.9301C20.5145 23.9304 20.5748 23.922 20.6327 23.9054C23.7418 23.0082 25.8682 20.3282 25.8845 17.2864Z" fill="white"/>
<path d="M22.1859 17.2864C22.1859 15.377 20.5301 13.8291 18.4875 13.8291C16.4449 13.8291 14.7891 15.377 14.7891 17.2864C14.7891 19.1959 16.4449 20.7437 18.4875 20.7437C20.5292 20.7419 22.1838 19.1951 22.1859 17.2864ZM18.4875 19.5913C17.1258 19.5913 16.0219 18.5594 16.0219 17.2864C16.0219 16.0135 17.1258 14.9815 18.4875 14.9815C19.8492 14.9815 20.9531 16.0135 20.9531 17.2864C20.9531 18.5594 19.8492 19.5913 18.4875 19.5913Z" fill="white"/>
</svg>
